<svg width="8" height="9" viewBox="0 0 8 9" fill="none" xmlns="http://www.w3.org/2000/svg">
<path d="M4.28333 3.96998L1.59104 0.219741C1.3807 -0.073247 1.03996 -0.073247 0.829626 0.219741C0.619291 0.512729 0.619291 0.987369 0.829626 1.28036L3.14247 4.49971L0.830468 7.72023C0.620133 8.01322 0.620133 8.48786 0.830468 8.78084C0.935299 8.92734 1.07294 9 1.21075 9C1.34857 9 1.48638 8.92675 1.59138 8.78026L4.28367 5.03002C4.49367 4.73644 4.49367 4.26297 4.28333 3.96998ZM7.51408 3.96998L4.82179 0.219741C4.61145 -0.073247 4.27071 -0.073247 4.06038 0.219741C3.85004 0.512729 3.85004 0.987369 4.06038 1.28036L6.37322 4.49971L4.06122 7.72023C3.85088 8.01322 3.85088 8.48786 4.06122 8.78084C4.16554 8.92734 4.30352 9 4.4415 9C4.57948 9 4.71713 8.92675 4.82213 8.78026L7.51442 5.03002C7.72442 4.73644 7.72442 4.26297 7.51408 3.96998Z" fill="white"/>
</svg>
